<svg xmlns="http://www.w3.org/2000/svg" viewBox="0 0 394.1 449.803"><g data-name="Layer 2"><g data-name="Layer 1"><path fill="#dae0e0" d="M90.956 169.448c-7.143-31.846-30.087-35.137-38.15-63.598-8.782-31.002 9.237-59.586 11.033-62.345C85.88 9.65 123.862-8.603 154.615 4.003 171.683 11 178.363 23.388 216.227 53.25c28.646 22.591 51.984 28.31 58.71 32.563 34.278 21.68 41.86 62.398 33.71 99.219-2.268 10.248-13.508 59.74-67.606 61.141-16.752.434-10.96-3.233-63.156-12.37-54.975-9.624-81.772-41.358-86.93-64.354Z"/><path fill="#9ce9ef" d="M84.033 448.638H32.211l-13.886-88.393H97.92l-13.887 88.393z"/><rect width="92.206" height="9.143" x="12.019" y="351.435" fill="#139da0" rx="4.572"/><path fill="#26b5bf" d="m31.135 370.092 1.418 8.562 1.343 8.573 2.57 17.162 2.403 17.187 1.142 8.602 1.067 8.613-1.42-8.562-1.344-8.572-2.568-17.163-2.402-17.188-1.142-8.602-1.067-8.612zM84.045 370.092l-.934 8.61-1.009 8.6-2.135 17.186-2.303 17.164-1.21 8.575-1.287 8.564.933-8.61 1.009-8.601 2.136-17.185 2.304-17.164 1.21-8.575 1.286-8.564zM57.265 370.092l.178 8.537.101 8.537.085 17.073-.083 17.074-.102 8.537-.179 8.537-.178-8.537-.102-8.537-.083-17.074.085-17.073.101-8.537.177-8.537z"/><path fill="#26b5bf" d="m28.294 380.766 7.457-.177 7.457-.102 14.914-.085 14.914.084 7.458.101 7.457.179-7.457.178-7.458.102-14.914.083-14.914-.084-7.457-.102-7.457-.177zM33.265 407.335c4.054-.15 8.108-.22 12.162-.279l12.163-.085 12.162.084c4.054.058 8.108.129 12.162.28-4.054.151-8.108.221-12.162.28l-12.162.084-12.163-.085c-4.054-.058-8.108-.129-12.162-.279ZM37.882 433.792c3.358-.15 6.717-.22 10.076-.28 3.358-.06 6.717-.054 10.076-.084 3.358.028 6.717.026 10.075.084 3.36.058 6.718.128 10.076.28-3.358.151-6.717.221-10.076.28-3.358.058-6.717.055-10.075.084-3.36-.03-6.718-.025-10.076-.085-3.36-.059-6.718-.13-10.076-.28Z"/><path fill="#f6b98a" d="M192.694 125.008H164.9l1.05-19.178h25.694l1.05 19.178z"/><path fill="#e8a77c" d="M191.644 105.83H165.95l-.147 1.882a17.187 17.187 0 0 0 13.039 5.534 16.333 16.333 0 0 0 12.961-5.383Z"/><path fill="#f4f4f4" d="m119.839 251.317 22.297-12.826s-35.146-39.211-7.18-67.062l86.544 23.453s12.259 28.172 22.386 15.332q.208-.264.416-.551c10.203-14.17 22.36-28.523 19.337-49.044l-16.251-4.764-6.047 8.978s-1.898-39.93-48.913-48.976c0 0-11.402 17.69-27.261 0 0 0-40.919 4.146-60.57 50.32s-6.552 43.974 15.242 85.14Z"/><path fill="#2d1505" d="m192.778 426.482 1.566 16.99h52.407s.91-5.649-3.844-7.709l-5.476.613a10.714 10.714 0 0 1-10.9-5.952l-2.385-5.041Z"/><path fill="#874106" d="M194.344 443.472h52.408v4.708h-52.408z"/><path fill="#2d1505" d="m166.323 426.116-2.1 17.814h-52.408s-.91-5.649 3.845-7.709l5.424.607a10.71 10.71 0 0 0 10.928-6.01l2.188-4.702Z"/><path fill="#874106" d="M111.815 443.93h52.408v4.708h-52.408z"/><path fill="#f6b98a" d="m157.127 64.18 1.134 11.482s-8.314 6.963 1.008 11.971c0 0 .299 23.333 19.573 23.577 18.087.23 19.479-21.134 19.227-24.432 0 0 10.204-4.764.756-11.36l.882-18.323Z"/><path fill="#f6b98a" d="m157.127 64.18 1.134 11.482s-8.314 6.963 1.008 11.971c0 0 .299 23.333 19.573 23.577 18.087.23 19.479-21.134 19.227-24.432 0 0 10.204-4.764.756-11.36l.882-18.323Z"/><path fill="#f27019" d="M139.113 252.66 134.2 426.116s25.888 6.046 32.123 0l10.204-129.359h3.826l12.425 129.725s20.786 4.398 31.368-1.1l-5.67-172.722Z"/><path fill="#f6b98a" d="m249.588 156.5 3.09-8.707s-2.645-9.07-.566-13.1c0 0-1.795-8.154-1.417-12.002 0 0 2.362-5.13 7.275 10.902 0 0 .189-3.39 1.606-3.298a5.55 5.55 0 0 0 1.496-.129 1.04 1.04 0 0 1 1.268 1.049l-1.36 28.624Z"/><path fill="#020202" d="M164.056 72.853a9.15 9.15 0 0 1 2.429-1.261 10.358 10.358 0 0 1 2.698-.595 7.301 7.301 0 0 1 2.797.274 4.42 4.42 0 0 1 2.28 1.582 7.673 7.673 0 0 0-2.461-.796 11.335 11.335 0 0 0-2.534-.03 52.73 52.73 0 0 0-5.209.826ZM183.708 72.16a6.898 6.898 0 0 1 2.14-1.015 9.355 9.355 0 0 1 2.351-.374 7.931 7.931 0 0 1 2.38.296 5.675 5.675 0 0 1 2.115 1.094c-.795-.11-1.52-.253-2.264-.301a19.408 19.408 0 0 0-2.206-.056c-1.477.027-2.943.207-4.516.357Z"/><path fill="#e8a77c" d="M178.982 91.265a2.293 2.293 0 0 1-.285-.018 2.52 2.52 0 0 1-1.844-1.314 4.322 4.322 0 0 1-.33-3.653 35.157 35.157 0 0 0 1.082-6.504l1.031.08a35.379 35.379 0 0 1-1.14 6.771 3.28 3.28 0 0 0 .242 2.772 1.493 1.493 0 0 0 1.082.822c.536.062 1.515-.192 3.106-1.792l.733.729c-1.406 1.415-2.613 2.107-3.677 2.107Z"/><path fill="#a03041" d="M174.26 95.023h9.448s-3.78 13.56-9.448 0Z"/><path fill="#f4f4f4" d="m168.675 396.311.675-8.559h-34.063l-.243 8.559h33.631zM167.069 416.669l.675-8.558H134.71l-.242 8.558h32.601zM222.911 387.752h-33.842l.819 8.559h33.303l-.28-8.559zM223.579 408.111h-32.561l.82 8.558h32.022l-.281-8.558z"/><path fill="#2d1505" d="M259.544 95.848h8.062v246.368h-8.062z"/><path fill="#303030" d="M276.005 358.797h-23.809l7.348-16.582h8.063l8.398 16.582z"/><path fill="#757575" d="M252.196 358.797h23.809v33.744h-23.809z"/><path fill="#e8e377" d="M246.821 448.487s3.78-3.48 6.708 0c0 0 3.78-3.664 7.37 0 0 0 3.684-3.756 7.086 0 0 0 2.929-3.847 6.802 0 0 0 3.402-3.939 6.992 0l-5.774-55.945h-23.809Z"/><ellipse cx="170.04" cy="78.105" fill="#020202" rx="1.701" ry="2.809"/><ellipse cx="188.201" cy="78.105" fill="#020202" rx="1.701" ry="2.809"/><path fill="#cc546b" d="M181.967 99.004c-.467-1.01-1.245-1.646-1.966-1.495-.918.193-1.388 1.579-1.05 3.095.034.15.079.291.125.431 1.162.09 2.139-.856 2.89-2.03Z"/><path fill="#601f24" d="M158.261 78.716s3.78-7.085 2.016-12.093c0 0 29.428 3.419 36.483-6.964 0 0-1.084 22.722 2.317 18.08 0 0 11.463-22.476-10.834-35.546s-43.713 20.155-29.982 36.523Z"/><path fill="#cec65f" d="M253.39 445.572c.031-1.938.128-3.87.19-5.806l.298-5.798c.209-3.864.51-7.722.761-11.583.335-3.855.624-7.713 1-11.565l.585-5.776c.233-1.922.43-3.848.694-5.768-.03 1.938-.127 3.871-.189 5.807l-.297 5.797c-.211 3.865-.51 7.722-.763 11.583-.337 3.855-.623 7.714-1.002 11.565l-.584 5.776c-.232 1.923-.43 3.848-.692 5.768ZM262.02 399.276c.06 1.85.056 3.7.086 5.55l-.021 5.545c-.016 3.697-.113 7.391-.21 11.086-.122 3.694-.246 7.388-.45 11.08l-.31 5.536c-.14 1.845-.246 3.69-.418 5.534-.062-1.85-.057-3.7-.088-5.549l.021-5.546c.017-3.697.113-7.391.212-11.086.123-3.694.247-7.388.451-11.079l.31-5.537c.14-1.844.245-3.69.417-5.534ZM266.555 399.276c.171 1.844.277 3.69.417 5.534l.31 5.537c.204 3.692.327 7.385.45 11.08.1 3.694.196 7.388.212 11.085l.021 5.546c-.03 1.85-.025 3.698-.087 5.549-.173-1.844-.278-3.69-.42-5.534l-.309-5.537c-.203-3.691-.327-7.385-.45-11.079-.096-3.695-.193-7.39-.21-11.086l-.02-5.546c.03-1.85.025-3.698.086-5.549ZM272.035 399.276c.21 1.773.355 3.55.535 5.323l.427 5.33c.283 3.552.485 7.109.687 10.666.178 3.558.353 7.117.448 10.68l.14 5.343c.008 1.784.053 3.565.03 5.35-.211-1.772-.356-3.548-.536-5.323l-.428-5.329c-.282-3.552-.485-7.11-.685-10.666-.176-3.559-.352-7.117-.447-10.68l-.14-5.344c-.009-1.783-.053-3.565-.031-5.35Z"/><path fill="#d6d5d4" d="M241.341 164.833c-1.153 2.474-2.393 4.85-3.622 7.244-1.251 2.381-2.458 4.775-3.854 7.125a34.415 34.415 0 0 1 2.937-7.601 32.875 32.875 0 0 1 4.54-6.768Z"/><path fill="#f6b98a" d="M274.017 133.853a4.114 4.114 0 0 0-4.886-3.929c-2.512.465-5.155 1.602-5.492 4.31v7.42a3.63 3.63 0 0 0 3.684 3.574l.19 5.405s6.733.555 6.504-16.78Z"/><path fill="#f27019" d="M149.845 120.134s7.001 23.689 29.691 24.788 28.554-24.336 28.554-24.336 10.469 4.38 17.879 11.96l-7.492 120.114h-79.364l3.023-14.17-4.552-5.846-6.048-102.027a90.049 90.049 0 0 1 18.309-10.483Z"/><path fill="#dd6512" d="m218.63 257.329-.153-4.669h-77.844l-1.52 7.126h79.364l.153-2.457z"/><path fill="#f4f4f4" d="m222.271 191.829-86.92.246-.527-8.488h87.961l-.514 8.242zM223.64 169.878l.536-8.591-90.72.255.517 8.336h89.667z"/><path fill="#f6b98a" d="M125.361 248.14c6.632 10.828 19.692 2.887 19.692 2.887l2.726 2.09a13.166 13.166 0 0 0 9.855 2.707 13.794 13.794 0 0 0 6.515-2.757q.384-.301.748-.63c4.465-4.034 2.147-7.446-.87-9.71a17.248 17.248 0 0 0-9.051-3.282c-15.35-1.166-12.84-.954-12.84-.954Z"/><path fill="#d9dbdb" d="m296.329 434.428 21.015-9.045 12.212 13.271-8.52 8.536-20.164 1.448-4.543-14.21z"/><path fill="#bababa" d="M316.35 429.153c-.253 1.848-.61 3.669-.998 5.481a127.01 127.01 0 0 1-1.285 5.406l-.139.54-.55-.127q-3.057-.702-6.082-1.543c-2.016-.562-4.02-1.17-5.998-1.9 2.094.232 4.16.585 6.215.983q3.081.6 6.13 1.34l-.69.413c.486-1.787.992-3.568 1.555-5.335.56-1.767 1.15-3.526 1.842-5.258Z"/><path fill="#bababa" d="M321.746 438.929a39.04 39.04 0 0 1-4.066.926 70.647 70.647 0 0 1-4.102.614l.313-.138a69.5 69.5 0 0 1-3.344 2.749 38.936 38.936 0 0 1-3.569 2.492 38.949 38.949 0 0 1 2.964-3.187 69.566 69.566 0 0 1 3.188-2.93l.137-.12.176-.018a70.654 70.654 0 0 1 4.133-.35 39.024 39.024 0 0 1 4.17-.038Z"/><path fill="#bababa" d="m313.936 439.495 3.692 4.804-4.543-4.008.851-.796z"/><path fill="#d9dbdb" d="m282.879 444.704 3.823-21.985 18.153-2.548 2.638 11.601-9.885 17.103-14.729-4.171z"/><path fill="#bababa" d="M289.396 425.604c1.446 1.214 2.813 2.502 4.155 3.813a130.063 130.063 0 0 1 3.934 4.018l.402.426-.438.397q-2.296 2.08-4.683 4.06c-1.592 1.318-3.217 2.601-4.922 3.794 1.367-1.569 2.816-3.047 4.297-4.49q2.22-2.165 4.537-4.222l-.037.822a130.057 130.057 0 0 1-3.733-4.206c-1.214-1.43-2.403-2.884-3.512-4.412Z"/><path fill="#bababa" d="M300.78 426.638a37.47 37.47 0 0 1-1.462 3.8 67.379 67.379 0 0 1-1.74 3.657l.058-.353c.214 1.403.399 2.81.523 4.226a37.507 37.507 0 0 1 .182 4.277 37.488 37.488 0 0 1-1.095-4.139 66.55 66.55 0 0 1-.756-4.19l-.028-.189.087-.164a67.343 67.343 0 0 1 1.977-3.535 37.528 37.528 0 0 1 2.255-3.39Z"/><path fill="#bababa" d="m296.978 433.253 6.147-.321-5.976 1.473-.171-1.152z"/><ellipse cx="344.452" cy="338.624" fill="#57c984" rx="9.413" ry="9.127"/><path fill="#4fba75" d="M351.881 342.209a9.542 9.542 0 0 1-12.113 4.33c.16.09.323.176.491.257a9.55 9.55 0 0 0 12.62-4.106 9 9 0 0 0-4.234-12.237 9.697 9.697 0 0 0-.507-.225 8.984 8.984 0 0 1 3.743 11.98Z"/><ellipse cx="344.617" cy="343.87" fill="#4fba75" rx=".779" ry="1.07" transform="rotate(-85.532 344.617 343.87)"/><ellipse cx="343.283" cy="338.212" fill="#4fba75" rx=".913" ry="1.23" transform="rotate(-65.979 343.283 338.212)"/><ellipse cx="340.741" cy="333.914" fill="#4fba75" rx=".975" ry="1.196" transform="rotate(-47.626 340.74 333.914)"/><ellipse cx="347.888" cy="333.594" fill="#4fba75" rx=".99" ry="1.22" transform="rotate(-4.078 347.888 333.594)"/><ellipse cx="349.303" cy="340.914" fill="#4fba75" rx=".749" ry=".727"/><ellipse cx="338.08" cy="342.223" fill="#4fba75" rx="1.04" ry="1.354" transform="rotate(-20.62 338.08 342.223)"/><ellipse cx="350.335" cy="336.514" fill="#4fba75" rx=".615" ry=".597"/><ellipse cx="338.566" cy="337.548" fill="#4fba75" rx=".615" ry=".597"/><path fill="#57c984" d="M344.034 351.182a6.15 6.15 0 0 1 .93-3.444l-2.851-.272s.957.7.7 3.707ZM332.98 344.31a6.656 6.656 0 0 1 3.573-.813l-1.084-2.57s-.191 1.147-3.052 2.332ZM352.68 342.594a9.166 9.166 0 0 1-.474.816c.413-.128 1.505-.274 3.647.622l.398-1.119a6.44 6.44 0 0 1-2.958-1.848 9.003 9.003 0 0 1-.613 1.529ZM339.119 331.104a9.55 9.55 0 0 1 2.1-1.048 6.448 6.448 0 0 1-1.905-2.648l-1.074.563a5.909 5.909 0 0 1 .879 3.133ZM344.609 326.257a6.147 6.147 0 0 1-.902 3.45l2.853.25s-.963-.692-.73-3.7ZM352.553 328.892a6.46 6.46 0 0 1-2.918 2.16l2.074 1.915s-.31-1.123 1.8-3.339ZM333.686 331.963a6.423 6.423 0 0 1 2.53 2.58l1.74-2.206s-1.119.42-3.619-1.375ZM335.156 337.181a8.85 8.85 0 0 1-2.577-.01l-.066 1.183a5.615 5.615 0 0 1 2.53.59 8.802 8.802 0 0 1 .113-1.763ZM353.812 337.67a9.218 9.218 0 0 1 2.298-.66l-.302-1.146a5.307 5.307 0 0 1-2.324.197 8.915 8.915 0 0 1 .328 1.61ZM349.4 346.168a9.54 9.54 0 0 1-1.475.761 8.884 8.884 0 0 1 1.154 1.935l1.076-.559a4.91 4.91 0 0 1-.754-2.137ZM339.897 346.61a9.444 9.444 0 0 1-1.331-.863 3.526 3.526 0 0 1-.823 2.036l.67.367a3.902 3.902 0 0 1 1.484-1.54Z"/><path fill="#4fba75" d="M344.655 351.218a.323.323 0 0 1 .186.302.33.33 0 0 1-.346.313l-2.17-.071a.324.324 0 1 1 .022-.649l2.17.071a.34.34 0 0 1 .138.034ZM332.342 342.627a.33.33 0 0 1 .145.135l1.035 1.852a.32.32 0 0 1-.135.44.34.34 0 0 1-.453-.13l-1.035-1.853a.32.32 0 0 1 .135-.44.343.343 0 0 1 .308-.004ZM339.82 326.708a.329.329 0 0 1 .143.134.32.32 0 0 1-.13.44l-1.902 1.02a.34.34 0 0 1-.455-.128.32.32 0 0 1 .131-.44l1.902-1.02a.344.344 0 0 1 .31-.006ZM346.486 325.76a.323.323 0 0 1 .186.292.33.33 0 0 1-.336.323l-2.172-.006a.324.324 0 1 1 .002-.648l2.172.005a.342.342 0 0 1 .148.034ZM352.39 328.306a.342.342 0 0 1 .036.02l1.81 1.164a.318.318 0 0 1 .095.45.34.34 0 0 1-.464.09l-1.81-1.163a.318.318 0 0 1-.095-.45.34.34 0 0 1 .428-.111ZM355.945 335.127a.325.325 0 0 1 .181.235l.369 2.076a.325.325 0 0 1-.273.375.334.334 0 0 1-.387-.265l-.368-2.076a.325.325 0 0 1 .273-.374.341.341 0 0 1 .205.029ZM356.662 342.179a.32.32 0 0 1 .166.4l-.733 1.982a.337.337 0 0 1-.427.196.32.32 0 0 1-.203-.415l.733-1.983a.337.337 0 0 1 .428-.196.312.312 0 0 1 .036.016ZM350.766 347.819a.328.328 0 0 1 .149.142.32.32 0 0 1-.146.437l-1.934.958a.339.339 0 0 1-.45-.14.32.32 0 0 1 .146-.437l1.934-.959a.343.343 0 0 1 .301-.001ZM332.897 336.406a.322.322 0 0 1 .18.348l-.382 2.073a.334.334 0 0 1-.388.262.325.325 0 0 1-.27-.376l.382-2.073a.334.334 0 0 1 .388-.263.344.344 0 0 1 .09.03ZM334.68 330.218l.025.013a.319.319 0 0 1 .113.446l-1.123 1.802a.342.342 0 0 1-.46.11.319.319 0 0 1-.113-.445l1.124-1.803a.34.34 0 0 1 .435-.123ZM337.51 347.516l.026.014 1.178.701a.319.319 0 0 1 .11.446.34.34 0 0 1-.46.107l-1.178-.701a.319.319 0 0 1-.11-.446.34.34 0 0 1 .434-.121Z"/><ellipse cx="307.39" cy="368.097" fill="#57c984" rx="8.246" ry="7.996"/><path fill="#4fba75" d="M313.898 371.237a8.36 8.36 0 0 1-10.611 3.794c.14.078.283.153.43.224a8.367 8.367 0 0 0 11.056-3.596 7.885 7.885 0 0 0-3.71-10.72 8.51 8.51 0 0 0-.443-.198 7.87 7.87 0 0 1 3.278 10.496Z"/><ellipse cx="307.535" cy="372.692" fill="#4fba75" rx=".682" ry=".938" transform="rotate(-85.532 307.535 372.692)"/><ellipse cx="306.366" cy="367.736" fill="#4fba75" rx=".8" ry="1.077" transform="rotate(-65.979 306.366 367.736)"/><ellipse cx="304.139" cy="363.97" fill="#4fba75" rx=".854" ry="1.048" transform="rotate(-47.626 304.14 363.97)"/><ellipse cx="310.4" cy="363.69" fill="#4fba75" rx=".867" ry="1.069" transform="rotate(-4.078 310.4 363.69)"/><ellipse cx="311.64" cy="370.102" fill="#4fba75" rx=".656" ry=".636"/><ellipse cx="301.808" cy="371.249" fill="#4fba75" rx=".911" ry="1.186" transform="rotate(-20.62 301.808 371.25)"/><ellipse cx="312.544" cy="366.248" fill="#4fba75" rx=".539" ry=".523"/><ellipse cx="302.234" cy="367.153" fill="#4fba75" rx=".539" ry=".523"/><path fill="#57c984" d="M307.024 379.098a5.387 5.387 0 0 1 .815-3.017l-2.498-.238s.839.613.613 3.246ZM297.34 373.077a5.83 5.83 0 0 1 3.13-.712l-.95-2.252s-.167 1.006-2.673 2.044ZM314.598 371.574a8.027 8.027 0 0 1-.415.715c.362-.113 1.318-.24 3.195.545l.349-.98a5.641 5.641 0 0 1-2.592-1.62 7.887 7.887 0 0 1-.537 1.34ZM302.718 361.509a8.367 8.367 0 0 1 1.84-.919 5.65 5.65 0 0 1-1.67-2.32l-.94.494a5.176 5.176 0 0 1 .77 2.745ZM307.528 357.262a5.385 5.385 0 0 1-.79 3.023l2.499.22s-.844-.608-.64-3.243ZM314.487 359.57a5.659 5.659 0 0 1-2.557 1.892l1.817 1.679s-.271-.984 1.578-2.925ZM297.96 362.261a5.627 5.627 0 0 1 2.215 2.26l1.524-1.933s-.98.368-3.17-1.204ZM299.246 366.832a7.753 7.753 0 0 1-2.257-.008l-.058 1.035a4.92 4.92 0 0 1 2.217.518 7.71 7.71 0 0 1 .098-1.545ZM315.59 367.261a8.075 8.075 0 0 1 2.013-.578l-.265-1.005a4.65 4.65 0 0 1-2.035.173 7.811 7.811 0 0 1 .287 1.41ZM311.726 374.705a8.357 8.357 0 0 1-1.293.667 7.783 7.783 0 0 1 1.01 1.695l.943-.49a4.302 4.302 0 0 1-.66-1.872ZM303.4 375.092a8.273 8.273 0 0 1-1.166-.756 3.089 3.089 0 0 1-.72 1.784l.586.322a3.419 3.419 0 0 1 1.3-1.35Z"/><path fill="#4fba75" d="M307.568 379.13a.283.283 0 0 1 .163.263.29.29 0 0 1-.303.275l-1.902-.063a.284.284 0 1 1 .02-.567l1.902.062a.297.297 0 0 1 .12.03ZM296.782 371.603a.289.289 0 0 1 .126.119l.907 1.622a.28.28 0 0 1-.118.385.298.298 0 0 1-.397-.114l-.907-1.623a.28.28 0 0 1 .118-.385.3.3 0 0 1 .27-.004ZM303.332 357.658a.288.288 0 0 1 .126.116.28.28 0 0 1-.115.387l-1.666.892a.298.298 0 0 1-.398-.111.28.28 0 0 1 .115-.386l1.666-.893a.301.301 0 0 1 .272-.005ZM309.172 356.827a.283.283 0 0 1 .163.255.289.289 0 0 1-.294.284l-1.903-.005a.284.284 0 1 1 .001-.569l1.904.005a.3.3 0 0 1 .13.03ZM314.344 359.057a.298.298 0 0 1 .032.018l1.586 1.02a.279.279 0 0 1 .083.393.298.298 0 0 1-.407.08l-1.586-1.02a.279.279 0 0 1-.082-.393.299.299 0 0 1 .374-.098ZM317.459 365.033a.285.285 0 0 1 .158.206l.323 1.818a.285.285 0 0 1-.239.329.292.292 0 0 1-.338-.232l-.323-1.819a.285.285 0 0 1 .239-.328.299.299 0 0 1 .18.026ZM318.087 371.21a.28.28 0 0 1 .145.35l-.642 1.738a.295.295 0 0 1-.374.171.28.28 0 0 1-.177-.363l.641-1.737a.295.295 0 0 1 .375-.172.273.273 0 0 1 .032.013ZM312.922 376.151a.288.288 0 0 1 .13.125.28.28 0 0 1-.128.382l-1.694.84a.297.297 0 0 1-.394-.123.28.28 0 0 1 .127-.383l1.695-.84a.3.3 0 0 1 .264 0ZM297.268 366.153a.282.282 0 0 1 .157.305l-.334 1.816a.292.292 0 0 1-.34.23.285.285 0 0 1-.237-.33l.334-1.816a.292.292 0 0 1 .34-.23.301.301 0 0 1 .08.025ZM298.83 360.732l.021.012a.28.28 0 0 1 .1.39l-.985 1.58a.3.3 0 0 1-.402.096.28.28 0 0 1-.1-.39l.985-1.58a.298.298 0 0 1 .381-.108ZM301.309 375.886l.023.012 1.032.615a.28.28 0 0 1 .096.39.298.298 0 0 1-.403.094l-1.032-.614a.28.28 0 0 1-.096-.391.298.298 0 0 1 .38-.106Z"/><ellipse cx="366.322" cy="391.945" fill="#57c984" rx="14.023" ry="13.597"/><path fill="#4fba75" d="M377.39 397.284a14.216 14.216 0 0 1-18.046 6.453c.239.132.482.26.732.381a14.229 14.229 0 0 0 18.8-6.116 13.41 13.41 0 0 0-6.307-18.23c-.25-.121-.502-.232-.755-.337a13.384 13.384 0 0 1 5.576 17.85Z"/><ellipse cx="366.568" cy="399.76" fill="#4fba75" rx="1.16" ry="1.594" transform="rotate(-85.532 366.568 399.76)"/><ellipse cx="364.58" cy="391.331" fill="#4fba75" rx="1.361" ry="1.832" transform="rotate(-65.979 364.58 391.33)"/><ellipse cx="360.793" cy="384.927" fill="#4fba75" rx="1.452" ry="1.782" transform="rotate(-47.626 360.793 384.927)"/><ellipse cx="371.44" cy="384.451" fill="#4fba75" rx="1.475" ry="1.817" transform="rotate(-4.078 371.44 384.451)"/><ellipse cx="373.548" cy="395.355" fill="#4fba75" rx="1.116" ry="1.082"/><ellipse cx="356.829" cy="397.306" fill="#4fba75" rx="1.549" ry="2.017" transform="rotate(-20.62 356.829 397.306)"/><ellipse cx="375.086" cy="388.801" fill="#4fba75" rx=".917" ry=".889"/><ellipse cx="357.553" cy="390.34" fill="#4fba75" rx=".917" ry=".889"/><path fill="#57c984" d="M365.699 410.652s-.314-1.817 1.385-5.13l-4.247-.405s1.426 1.043 1.043 5.522ZM349.23 400.414s1.51-1.119 5.325-1.21l-1.616-3.83s-.285 1.71-4.546 3.475ZM378.58 397.858a13.654 13.654 0 0 1-.706 1.216c.614-.191 2.241-.408 5.433.927l.593-1.667s-1.801-.285-4.407-2.754a13.412 13.412 0 0 1-.914 2.278ZM358.377 380.741a14.229 14.229 0 0 1 3.128-1.562 9.607 9.607 0 0 1-2.838-3.944l-1.6.839s1.075 1.325 1.31 4.667ZM366.556 373.52s.329 1.815-1.344 5.14l4.25.373s-1.434-1.032-1.088-5.513ZM378.391 377.446s-.906 1.62-4.348 3.216l3.09 2.854s-.462-1.673 2.683-4.974ZM350.284 382.02s1.759.7 3.767 3.844l2.592-3.287s-1.665.626-5.39-2.048ZM352.473 389.795a13.184 13.184 0 0 1-3.84-.015l-.098 1.761a8.365 8.365 0 0 1 3.77.88 13.112 13.112 0 0 1 .168-2.626ZM380.266 390.524a13.732 13.732 0 0 1 3.423-.983l-.45-1.71a7.907 7.907 0 0 1-3.461.295 13.282 13.282 0 0 1 .488 2.398ZM373.694 403.183a14.21 14.21 0 0 1-2.198 1.134 13.235 13.235 0 0 1 1.719 2.883l1.603-.833a7.315 7.315 0 0 1-1.124-3.184ZM359.535 403.841a14.068 14.068 0 0 1-1.982-1.286 5.253 5.253 0 0 1-1.225 3.034l.997.547a5.814 5.814 0 0 1 2.21-2.295Z"/><path fill="#4fba75" d="M366.625 410.706a.481.481 0 0 1 .276.45.492.492 0 0 1-.515.466l-3.234-.106a.483.483 0 1 1 .033-.965l3.235.105a.505.505 0 0 1 .205.05ZM348.281 397.907a.49.49 0 0 1 .216.202l1.541 2.76a.476.476 0 0 1-.2.654.507.507 0 0 1-.676-.194l-1.541-2.76a.476.476 0 0 1 .2-.654.511.511 0 0 1 .46-.008ZM359.42 374.192a.49.49 0 0 1 .215.199.476.476 0 0 1-.196.657l-2.832 1.517a.507.507 0 0 1-.678-.189.476.476 0 0 1 .196-.657l2.832-1.517a.512.512 0 0 1 .464-.01ZM369.352 372.78a.482.482 0 0 1 .277.434.49.49 0 0 1-.5.482l-3.236-.009a.483.483 0 1 1 .002-.966l3.237.008a.51.51 0 0 1 .22.05ZM378.147 376.573a.507.507 0 0 1 .054.03l2.698 1.734a.474.474 0 0 1 .14.669.507.507 0 0 1-.69.136l-2.698-1.734a.474.474 0 0 1-.14-.67.508.508 0 0 1 .636-.165ZM383.444 386.734a.485.485 0 0 1 .27.35l.549 3.093a.485.485 0 0 1-.407.559.497.497 0 0 1-.575-.394l-.55-3.093a.485.485 0 0 1 .407-.558.509.509 0 0 1 .306.043ZM384.512 397.24a.477.477 0 0 1 .247.595l-1.091 2.954a.502.502 0 0 1-.637.292.477.477 0 0 1-.302-.618l1.092-2.954a.502.502 0 0 1 .637-.292.465.465 0 0 1 .054.022ZM375.729 405.642a.489.489 0 0 1 .221.212.476.476 0 0 1-.217.65l-2.881 1.43a.505.505 0 0 1-.67-.211.476.476 0 0 1 .216-.65l2.882-1.429a.51.51 0 0 1 .449-.002ZM349.108 388.64a.48.48 0 0 1 .268.517l-.569 3.09a.497.497 0 0 1-.578.39.484.484 0 0 1-.403-.56l.569-3.09a.497.497 0 0 1 .578-.39.512.512 0 0 1 .135.043ZM351.765 379.421a.59.59 0 0 1 .036.02.475.475 0 0 1 .169.663l-1.674 2.686a.51.51 0 0 1-.684.163.475.475 0 0 1-.169-.663l1.674-2.686a.507.507 0 0 1 .648-.183ZM355.98 405.19a.531.531 0 0 1 .04.022l1.754 1.045a.475.475 0 0 1 .164.664.508.508 0 0 1-.686.16l-1.754-1.045a.475.475 0 0 1-.164-.665.507.507 0 0 1 .646-.18Z"/><ellipse cx="292.039" cy="346.236" fill="#3ca05d" rx="2.163" ry="2.098"/><ellipse cx="391.417" cy="357.003" fill="#3ca05d" rx="2.683" ry="2.601"/><ellipse cx="341.563" cy="373.405" fill="#3ca05d" rx="2.437" ry="2.363"/><ellipse cx="311.365" cy="319.505" fill="#3ca05d" rx="1.913" ry="1.855"/><ellipse cx="54.577" cy="264.82" fill="#57c984" rx="9.413" ry="9.127"/><path fill="#4fba75" d="M62.006 268.404a9.542 9.542 0 0 1-12.113 4.331c.16.09.324.175.491.256a9.551 9.551 0 0 0 12.62-4.105 9 9 0 0 0-4.233-12.237 9.697 9.697 0 0 0-.507-.226 8.984 8.984 0 0 1 3.742 11.981Z"/><ellipse cx="54.743" cy="270.066" fill="#4fba75" rx=".779" ry="1.07" transform="rotate(-85.532 54.743 270.066)"/><ellipse cx="53.408" cy="264.408" fill="#4fba75" rx=".913" ry="1.23" transform="rotate(-65.979 53.408 264.408)"/><ellipse cx="50.866" cy="260.109" fill="#4fba75" rx=".975" ry="1.196" transform="rotate(-47.626 50.866 260.11)"/><ellipse cx="58.013" cy="259.79" fill="#4fba75" rx=".99" ry="1.22" transform="rotate(-4.078 58.013 259.79)"/><ellipse cx="59.428" cy="267.109" fill="#4fba75" rx=".749" ry=".727"/><ellipse cx="48.205" cy="268.419" fill="#4fba75" rx="1.04" ry="1.354" transform="rotate(-20.62 48.205 268.419)"/><ellipse cx="60.46" cy="262.709" fill="#4fba75" rx=".615" ry=".597"/><ellipse cx="48.691" cy="263.743" fill="#4fba75" rx=".615" ry=".597"/><path fill="#57c984" d="M54.159 277.377a6.149 6.149 0 0 1 .93-3.443l-2.85-.272s.957.7.7 3.706ZM43.105 270.505a6.656 6.656 0 0 1 3.574-.813l-1.085-2.57s-.19 1.148-3.052 2.332ZM62.805 268.79a9.163 9.163 0 0 1-.473.816c.412-.13 1.504-.274 3.646.622l.399-1.12a6.44 6.44 0 0 1-2.959-1.848 9.003 9.003 0 0 1-.613 1.53ZM49.244 257.3a9.551 9.551 0 0 1 2.1-1.049 6.448 6.448 0 0 1-1.905-2.647l-1.074.563a5.909 5.909 0 0 1 .88 3.133ZM54.734 252.452a6.147 6.147 0 0 1-.902 3.451l2.853.25s-.963-.693-.73-3.7ZM62.679 255.088a6.46 6.46 0 0 1-2.92 2.159l2.075 1.915s-.31-1.123 1.8-3.338ZM43.812 258.159a6.423 6.423 0 0 1 2.529 2.58l1.74-2.207s-1.118.42-3.618-1.375ZM45.281 263.377a8.85 8.85 0 0 1-2.577-.01l-.066 1.182a5.615 5.615 0 0 1 2.53.59 8.8 8.8 0 0 1 .113-1.762ZM63.937 263.866a9.218 9.218 0 0 1 2.298-.66l-.302-1.147a5.307 5.307 0 0 1-2.323.197 8.917 8.917 0 0 1 .327 1.61ZM59.526 272.364a9.539 9.539 0 0 1-1.476.76 8.884 8.884 0 0 1 1.154 1.936l1.076-.56a4.91 4.91 0 0 1-.754-2.136ZM50.022 272.805a9.444 9.444 0 0 1-1.33-.863 3.526 3.526 0 0 1-.823 2.036l.67.368a3.902 3.902 0 0 1 1.483-1.54Z"/><path fill="#4fba75" d="M54.78 277.414a.323.323 0 0 1 .186.301.33.33 0 0 1-.345.313l-2.172-.071a.324.324 0 1 1 .023-.648l2.171.07a.339.339 0 0 1 .138.035ZM42.468 268.822a.33.33 0 0 1 .144.136l1.035 1.852a.32.32 0 0 1-.135.44.34.34 0 0 1-.453-.131l-1.035-1.852a.32.32 0 0 1 .135-.44.343.343 0 0 1 .309-.005ZM49.945 252.904a.329.329 0 0 1 .144.133.32.32 0 0 1-.132.44l-1.901 1.02a.34.34 0 0 1-.455-.127.32.32 0 0 1 .131-.441l1.902-1.019a.344.344 0 0 1 .311-.006ZM56.611 251.956a.323.323 0 0 1 .186.291.33.33 0 0 1-.335.323l-2.173-.005a.324.324 0 1 1 .002-.649l2.172.006a.342.342 0 0 1 .148.034ZM62.515 254.501a.34.34 0 0 1 .036.02l1.81 1.164a.318.318 0 0 1 .095.45.34.34 0 0 1-.464.091l-1.81-1.164a.318.318 0 0 1-.095-.45.34.34 0 0 1 .428-.11ZM66.07 261.322a.325.325 0 0 1 .181.236l.369 2.076a.325.325 0 0 1-.273.374.334.334 0 0 1-.386-.264l-.369-2.076a.325.325 0 0 1 .273-.375.341.341 0 0 1 .206.03ZM66.787 268.374a.32.32 0 0 1 .166.4l-.733 1.983a.337.337 0 0 1-.427.195.32.32 0 0 1-.202-.414l.732-1.983a.337.337 0 0 1 .428-.196.313.313 0 0 1 .036.015ZM60.891 274.014a.328.328 0 0 1 .15.143.32.32 0 0 1-.147.436l-1.934.959a.339.339 0 0 1-.45-.141.32.32 0 0 1 .146-.437l1.934-.958a.343.343 0 0 1 .301-.002ZM43.022 262.602a.322.322 0 0 1 .18.347l-.381 2.074a.334.334 0 0 1-.388.262.325.325 0 0 1-.27-.376l.381-2.074a.334.334 0 0 1 .388-.262.344.344 0 0 1 .09.029ZM44.806 256.414l.024.013a.319.319 0 0 1 .114.445l-1.124 1.803a.342.342 0 0 1-.46.11.319.319 0 0 1-.113-.446l1.124-1.803a.34.34 0 0 1 .435-.122ZM47.635 273.711l.027.014 1.177.702a.319.319 0 0 1 .11.446.34.34 0 0 1-.46.106l-1.177-.7a.319.319 0 0 1-.11-.447.34.34 0 0 1 .433-.12Z"/><ellipse cx="17.516" cy="294.292" fill="#57c984" rx="8.246" ry="7.996"/><path fill="#4fba75" d="M24.024 297.432a8.36 8.36 0 0 1-10.612 3.794c.14.078.284.154.43.225a8.367 8.367 0 0 0 11.056-3.597 7.885 7.885 0 0 0-3.709-10.72 8.493 8.493 0 0 0-.444-.198 7.87 7.87 0 0 1 3.279 10.496Z"/><ellipse cx="17.66" cy="298.888" fill="#4fba75" rx=".682" ry=".938" transform="rotate(-85.532 17.66 298.888)"/><ellipse cx="16.491" cy="293.931" fill="#4fba75" rx=".8" ry="1.077" transform="rotate(-65.979 16.491 293.931)"/><ellipse cx="14.264" cy="290.166" fill="#4fba75" rx=".854" ry="1.048" transform="rotate(-47.626 14.264 290.166)"/><ellipse cx="20.525" cy="289.886" fill="#4fba75" rx=".867" ry="1.069" transform="rotate(-4.078 20.525 289.886)"/><ellipse cx="21.765" cy="296.298" fill="#4fba75" rx=".656" ry=".636"/><ellipse cx="11.933" cy="297.445" fill="#4fba75" rx=".911" ry="1.186" transform="rotate(-20.62 11.933 297.445)"/><ellipse cx="22.669" cy="292.443" fill="#4fba75" rx=".539" ry=".523"/><ellipse cx="12.359" cy="293.349" fill="#4fba75" rx=".539" ry=".523"/><path fill="#57c984" d="M17.15 305.293a5.387 5.387 0 0 1 .814-3.017l-2.498-.238s.84.614.614 3.247ZM7.465 299.273a5.83 5.83 0 0 1 3.131-.712l-.95-2.253s-.167 1.006-2.673 2.044ZM24.723 297.77a8.027 8.027 0 0 1-.414.715c.36-.113 1.318-.24 3.194.545l.35-.98a5.641 5.641 0 0 1-2.592-1.62 7.886 7.886 0 0 1-.538 1.34ZM12.844 287.704a8.367 8.367 0 0 1 1.84-.919 5.65 5.65 0 0 1-1.67-2.319l-.94.494a5.176 5.176 0 0 1 .77 2.744ZM17.653 283.458a5.385 5.385 0 0 1-.79 3.023l2.5.219s-.844-.607-.64-3.242ZM24.613 285.766a5.659 5.659 0 0 1-2.557 1.892l1.817 1.678s-.272-.984 1.577-2.925ZM8.084 288.457a5.627 5.627 0 0 1 2.216 2.26l1.524-1.933s-.98.368-3.17-1.205ZM9.372 293.028a7.753 7.753 0 0 1-2.258-.009l-.058 1.036a4.92 4.92 0 0 1 2.217.517 7.71 7.71 0 0 1 .099-1.544ZM25.715 293.456a8.075 8.075 0 0 1 2.013-.578l-.264-1.004a4.65 4.65 0 0 1-2.036.172 7.81 7.81 0 0 1 .287 1.41ZM21.85 300.9a8.357 8.357 0 0 1-1.292.668 7.783 7.783 0 0 1 1.01 1.695l.943-.49a4.302 4.302 0 0 1-.66-1.872ZM13.525 301.288a8.274 8.274 0 0 1-1.166-.756 3.089 3.089 0 0 1-.72 1.783l.586.322a3.419 3.419 0 0 1 1.3-1.35Z"/><path fill="#4fba75" d="M17.694 305.325a.283.283 0 0 1 .162.264.29.29 0 0 1-.303.274l-1.901-.062a.284.284 0 1 1 .02-.568l1.901.062a.297.297 0 0 1 .12.03ZM6.907 297.798a.289.289 0 0 1 .127.12l.906 1.622a.28.28 0 0 1-.118.385.298.298 0 0 1-.397-.115l-.907-1.622a.28.28 0 0 1 .119-.385.3.3 0 0 1 .27-.005ZM13.457 283.853a.288.288 0 0 1 .126.117.28.28 0 0 1-.115.386l-1.665.892a.298.298 0 0 1-.399-.11.28.28 0 0 1 .115-.387l1.666-.892a.301.301 0 0 1 .272-.006ZM19.297 283.023a.283.283 0 0 1 .163.255.289.289 0 0 1-.294.283l-1.903-.005a.284.284 0 1 1 .002-.568l1.903.005a.3.3 0 0 1 .13.03ZM24.47 285.253a.298.298 0 0 1 .031.018l1.586 1.019a.279.279 0 0 1 .083.394.298.298 0 0 1-.406.08l-1.587-1.02a.279.279 0 0 1-.082-.394.299.299 0 0 1 .374-.097ZM27.584 291.228a.285.285 0 0 1 .159.206l.322 1.819a.285.285 0 0 1-.239.328.292.292 0 0 1-.338-.232l-.323-1.818a.285.285 0 0 1 .24-.328.3.3 0 0 1 .18.025ZM28.212 297.406a.28.28 0 0 1 .145.35l-.641 1.737a.295.295 0 0 1-.375.172.28.28 0 0 1-.177-.364l.642-1.737a.295.295 0 0 1 .374-.172.272.272 0 0 1 .032.014ZM23.047 302.347a.288.288 0 0 1 .13.125.28.28 0 0 1-.127.382l-1.695.84a.297.297 0 0 1-.394-.124.28.28 0 0 1 .128-.382l1.694-.84a.3.3 0 0 1 .264-.001ZM7.393 292.349a.282.282 0 0 1 .158.304l-.335 1.817a.292.292 0 0 1-.34.23.285.285 0 0 1-.237-.33l.335-1.817a.292.292 0 0 1 .34-.23.301.301 0 0 1 .079.026ZM8.955 286.928l.022.011a.28.28 0 0 1 .099.39l-.984 1.58a.3.3 0 0 1-.403.096.28.28 0 0 1-.099-.39l.984-1.58a.298.298 0 0 1 .381-.107ZM11.434 302.081l.023.013 1.032.614a.28.28 0 0 1 .096.391.298.298 0 0 1-.403.093l-1.031-.614a.28.28 0 0 1-.097-.39.298.298 0 0 1 .38-.107Z"/><ellipse cx="76.448" cy="318.14" fill="#57c984" rx="14.023" ry="13.597"/><path fill="#4fba75" d="M87.515 323.48a14.216 14.216 0 0 1-18.046 6.452c.24.133.482.261.732.382a14.229 14.229 0 0 0 18.801-6.117 13.41 13.41 0 0 0-6.308-18.23c-.25-.12-.502-.231-.755-.336a13.384 13.384 0 0 1 5.576 17.849Z"/><ellipse cx="76.694" cy="325.955" fill="#4fba75" rx="1.16" ry="1.594" transform="rotate(-85.532 76.694 325.955)"/><ellipse cx="74.705" cy="317.526" fill="#4fba75" rx="1.361" ry="1.832" transform="rotate(-65.979 74.705 317.526)"/><ellipse cx="70.918" cy="311.123" fill="#4fba75" rx="1.452" ry="1.782" transform="rotate(-47.626 70.918 311.123)"/><ellipse cx="81.566" cy="310.647" fill="#4fba75" rx="1.475" ry="1.817" transform="rotate(-4.077 81.576 310.648)"/><ellipse cx="83.673" cy="321.551" fill="#4fba75" rx="1.116" ry="1.082"/><ellipse cx="66.954" cy="323.501" fill="#4fba75" rx="1.549" ry="2.017" transform="rotate(-20.62 66.954 323.501)"/><ellipse cx="85.211" cy="314.996" fill="#4fba75" rx=".917" ry=".889"/><ellipse cx="67.679" cy="316.536" fill="#4fba75" rx=".917" ry=".889"/><path fill="#57c984" d="M75.824 336.848s-.314-1.818 1.386-5.13l-4.247-.406s1.426 1.044 1.042 5.522ZM59.356 326.61s1.51-1.12 5.324-1.211l-1.616-3.83s-.284 1.71-4.546 3.475ZM88.705 324.054a13.65 13.65 0 0 1-.706 1.216c.615-.192 2.242-.408 5.433.926l.594-1.666s-1.802-.285-4.408-2.754a13.412 13.412 0 0 1-.913 2.278ZM68.502 306.936a14.23 14.23 0 0 1 3.129-1.562 9.607 9.607 0 0 1-2.839-3.943l-1.6.838s1.075 1.325 1.31 4.667ZM76.68 299.716s.33 1.815-1.342 5.14l4.25.373s-1.435-1.033-1.089-5.514ZM88.516 303.641s-.906 1.62-4.348 3.217l3.09 2.854s-.462-1.674 2.683-4.974ZM60.409 308.216s1.759.699 3.768 3.844l2.592-3.287s-1.666.626-5.39-2.048ZM62.598 315.99a13.184 13.184 0 0 1-3.84-.014l-.098 1.76a8.366 8.366 0 0 1 3.77.88 13.111 13.111 0 0 1 .168-2.626ZM90.391 316.72a13.732 13.732 0 0 1 3.424-.984l-.45-1.709a7.907 7.907 0 0 1-3.462.294 13.283 13.283 0 0 1 .488 2.398ZM83.82 329.379a14.21 14.21 0 0 1-2.199 1.134 13.236 13.236 0 0 1 1.719 2.882l1.603-.833a7.315 7.315 0 0 1-1.123-3.183ZM69.66 330.036a14.07 14.07 0 0 1-1.982-1.285 5.253 5.253 0 0 1-1.225 3.033l.998.548a5.813 5.813 0 0 1 2.21-2.296Z"/><path fill="#4fba75" d="M76.75 336.902a.481.481 0 0 1 .276.45.492.492 0 0 1-.514.465l-3.235-.105a.483.483 0 1 1 .034-.966l3.234.106a.505.505 0 0 1 .205.05ZM58.406 324.103a.49.49 0 0 1 .216.202l1.542 2.759a.476.476 0 0 1-.201.655.507.507 0 0 1-.676-.195l-1.541-2.759a.476.476 0 0 1 .2-.655.511.511 0 0 1 .46-.007ZM69.546 300.388a.49.49 0 0 1 .214.198.476.476 0 0 1-.195.657l-2.833 1.518a.507.507 0 0 1-.677-.19.476.476 0 0 1 .195-.656l2.833-1.518a.512.512 0 0 1 .463-.01ZM79.477 298.975a.482.482 0 0 1 .277.435.49.49 0 0 1-.5.481l-3.236-.008a.483.483 0 1 1 .003-.967l3.236.009a.51.51 0 0 1 .22.05ZM88.273 302.768a.505.505 0 0 1 .054.03l2.697 1.734a.474.474 0 0 1 .14.67.507.507 0 0 1-.69.135l-2.698-1.733a.474.474 0 0 1-.14-.67.508.508 0 0 1 .637-.166ZM93.57 312.93a.485.485 0 0 1 .27.35l.548 3.093a.485.485 0 0 1-.406.558.497.497 0 0 1-.576-.394l-.55-3.093a.485.485 0 0 1 .407-.558.509.509 0 0 1 .307.043ZM94.638 323.435a.477.477 0 0 1 .246.595l-1.091 2.955a.502.502 0 0 1-.637.291.477.477 0 0 1-.301-.618l1.091-2.954a.502.502 0 0 1 .637-.292.465.465 0 0 1 .055.023ZM85.854 331.837a.489.489 0 0 1 .221.213.476.476 0 0 1-.217.65l-2.881 1.429a.505.505 0 0 1-.67-.21.476.476 0 0 1 .216-.65l2.882-1.43a.51.51 0 0 1 .449-.002ZM59.233 314.835a.48.48 0 0 1 .268.518l-.568 3.09a.497.497 0 0 1-.579.39.484.484 0 0 1-.403-.56l.57-3.09a.497.497 0 0 1 .577-.39.513.513 0 0 1 .135.042ZM61.89 305.617a.595.595 0 0 1 .036.019.475.475 0 0 1 .17.664l-1.675 2.685a.51.51 0 0 1-.684.164.475.475 0 0 1-.169-.664l1.674-2.685a.507.507 0 0 1 .648-.183ZM66.105 331.386a.531.531 0 0 1 .04.021l1.754 1.045a.475.475 0 0 1 .164.665.508.508 0 0 1-.686.159l-1.754-1.045a.475.475 0 0 1-.164-.665.507.507 0 0 1 .646-.18Z"/><ellipse cx="2.164" cy="272.431" fill="#3ca05d" rx="2.163" ry="2.098"/><ellipse cx="101.542" cy="283.199" fill="#3ca05d" rx="2.683" ry="2.601"/><ellipse cx="51.689" cy="299.6" fill="#3ca05d" rx="2.437" ry="2.363"/><ellipse cx="21.49" cy="245.701" fill="#3ca05d" rx="1.913" ry="1.855"/><path fill="none" stroke="#139da0" stroke-linecap="round" stroke-linejoin="round" stroke-width="2.33" d="M18.485 448.638h315.426"/></g></g></svg>